<svg width="311" height="311" viewBox="0 0 311 311" fill="none" xmlns="http://www.w3.org/2000/svg">
<circle cx="155.5" cy="155.5" r="155.5" fill="#414172"/>
<path d="M156.395 223.232C144.155 223.232 133.729 220.568 125.115 215.242C116.502 209.858 109.9 202.378 105.31 192.802C100.777 183.225 98.5103 172.118 98.5103 159.482C98.5103 146.845 100.777 135.738 105.31 126.162C109.9 116.585 116.502 109.133 125.115 103.807C133.729 98.4235 144.155 95.7318 156.395 95.7318C170.505 95.7318 182.179 99.3018 191.415 106.442C200.709 113.582 207.169 123.187 210.795 135.257L192.775 140.102C190.395 131.545 186.145 124.83 180.025 119.957C173.962 115.083 166.085 112.647 156.395 112.647C147.725 112.647 140.5 114.602 134.72 118.512C128.94 122.422 124.577 127.89 121.63 134.917C118.74 141.943 117.295 150.132 117.295 159.482C117.239 168.832 118.655 177.02 121.545 184.047C124.492 191.073 128.855 196.542 134.635 200.452C140.472 204.362 147.725 206.317 156.395 206.317C166.085 206.317 173.962 203.88 180.025 199.007C186.145 194.077 190.395 187.362 192.775 178.862L210.795 183.707C207.169 195.777 200.709 205.382 191.415 212.522C182.179 219.662 170.505 223.232 156.395 223.232Z" fill="#F7F7F7"/>
</svg>
